<svg xmlns="http://www.w3.org/2000/svg" version="1.1" xmlns:xlink="http://www.w3.org/1999/xlink" xmlns:svgjs="http://svgjs.dev/svgjs" viewBox="0 0 800 800" opacity="1"><g stroke-width="11" stroke="hsl(265, 55%, 20%)" fill="none" stroke-linecap="round" transform="matrix(1,0,0,1,-5,178.3476905822754)"><path d="M10,10C49.583333333333336,10.625,118.75,19.458333333333336,200,13C281.25,6.541666666666666,316.66666666666663,-23.291666666666668,400,-21C483.33333333333337,-18.708333333333332,516.6666666666666,20.041666666666668,600,24C683.3333333333334,27.958333333333332,758.3333333333334,3.416666666666666,800,-2"></path><path d="M10,10C49.583333333333336,10.625,118.75,19.458333333333336,200,13C281.25,6.541666666666666,316.66666666666663,-23.291666666666668,400,-21C483.33333333333337,-18.708333333333332,516.6666666666666,20.041666666666668,600,24C683.3333333333334,27.958333333333332,758.3333333333334,3.416666666666666,800,-2" transform="matrix(1,0,0,1,0,440)"></path><path d="M10,10C49.583333333333336,10.625,118.75,19.458333333333336,200,13C281.25,6.541666666666666,316.66666666666663,-23.291666666666668,400,-21C483.33333333333337,-18.708333333333332,516.6666666666666,20.041666666666668,600,24C683.3333333333334,27.958333333333332,758.3333333333334,3.416666666666666,800,-2" transform="matrix(1,0,0,1,0,430)"></path><path d="M10,10C49.583333333333336,10.625,118.75,19.458333333333336,200,13C281.25,6.541666666666666,316.66666666666663,-23.291666666666668,400,-21C483.33333333333337,-18.708333333333332,516.6666666666666,20.041666666666668,600,24C683.3333333333334,27.958333333333332,758.3333333333334,3.416666666666666,800,-2" transform="matrix(1,0,0,1,0,420)"></path><path d="M10,10C49.583333333333336,10.625,118.75,19.458333333333336,200,13C281.25,6.541666666666666,316.66666666666663,-23.291666666666668,400,-21C483.33333333333337,-18.708333333333332,516.6666666666666,20.041666666666668,600,24C683.3333333333334,27.958333333333332,758.3333333333334,3.416666666666666,800,-2" transform="matrix(1,0,0,1,0,410)"></path><path d="M10,10C49.583333333333336,10.625,118.75,19.458333333333336,200,13C281.25,6.541666666666666,316.66666666666663,-23.291666666666668,400,-21C483.33333333333337,-18.708333333333332,516.6666666666666,20.041666666666668,600,24C683.3333333333334,27.958333333333332,758.3333333333334,3.416666666666666,800,-2" transform="matrix(1,0,0,1,0,400)"></path><path d="M10,10C49.583333333333336,10.625,118.75,19.458333333333336,200,13C281.25,6.541666666666666,316.66666666666663,-23.291666666666668,400,-21C483.33333333333337,-18.708333333333332,516.6666666666666,20.041666666666668,600,24C683.3333333333334,27.958333333333332,758.3333333333334,3.416666666666666,800,-2" transform="matrix(1,0,0,1,0,390)"></path><path d="M10,10C49.583333333333336,10.625,118.75,19.458333333333336,200,13C281.25,6.541666666666666,316.66666666666663,-23.291666666666668,400,-21C483.33333333333337,-18.708333333333332,516.6666666666666,20.041666666666668,600,24C683.3333333333334,27.958333333333332,758.3333333333334,3.416666666666666,800,-2" transform="matrix(1,0,0,1,0,380)"></path><path d="M10,10C49.583333333333336,10.625,118.75,19.458333333333336,200,13C281.25,6.541666666666666,316.66666666666663,-23.291666666666668,400,-21C483.33333333333337,-18.708333333333332,516.6666666666666,20.041666666666668,600,24C683.3333333333334,27.958333333333332,758.3333333333334,3.416666666666666,800,-2" transform="matrix(1,0,0,1,0,370)"></path><path d="M10,10C49.583333333333336,10.625,118.75,19.458333333333336,200,13C281.25,6.541666666666666,316.66666666666663,-23.291666666666668,400,-21C483.33333333333337,-18.708333333333332,516.6666666666666,20.041666666666668,600,24C683.3333333333334,27.958333333333332,758.3333333333334,3.416666666666666,800,-2" transform="matrix(1,0,0,1,0,360)"></path><path d="M10,10C49.583333333333336,10.625,118.75,19.458333333333336,200,13C281.25,6.541666666666666,316.66666666666663,-23.291666666666668,400,-21C483.33333333333337,-18.708333333333332,516.6666666666666,20.041666666666668,600,24C683.3333333333334,27.958333333333332,758.3333333333334,3.416666666666666,800,-2" transform="matrix(1,0,0,1,0,350)"></path><path d="M10,10C49.583333333333336,10.625,118.75,19.458333333333336,200,13C281.25,6.541666666666666,316.66666666666663,-23.291666666666668,400,-21C483.33333333333337,-18.708333333333332,516.6666666666666,20.041666666666668,600,24C683.3333333333334,27.958333333333332,758.3333333333334,3.416666666666666,800,-2" transform="matrix(1,0,0,1,0,340)"></path><path d="M10,10C49.583333333333336,10.625,118.75,19.458333333333336,200,13C281.25,6.541666666666666,316.66666666666663,-23.291666666666668,400,-21C483.33333333333337,-18.708333333333332,516.6666666666666,20.041666666666668,600,24C683.3333333333334,27.958333333333332,758.3333333333334,3.416666666666666,800,-2" transform="matrix(1,0,0,1,0,330)"></path><path d="M10,10C49.583333333333336,10.625,118.75,19.458333333333336,200,13C281.25,6.541666666666666,316.66666666666663,-23.291666666666668,400,-21C483.33333333333337,-18.708333333333332,516.6666666666666,20.041666666666668,600,24C683.3333333333334,27.958333333333332,758.3333333333334,3.416666666666666,800,-2" transform="matrix(1,0,0,1,0,320)"></path><path d="M10,10C49.583333333333336,10.625,118.75,19.458333333333336,200,13C281.25,6.541666666666666,316.66666666666663,-23.291666666666668,400,-21C483.33333333333337,-18.708333333333332,516.6666666666666,20.041666666666668,600,24C683.3333333333334,27.958333333333332,758.3333333333334,3.416666666666666,800,-2" transform="matrix(1,0,0,1,0,310)"></path><path d="M10,10C49.583333333333336,10.625,118.75,19.458333333333336,200,13C281.25,6.541666666666666,316.66666666666663,-23.291666666666668,400,-21C483.33333333333337,-18.708333333333332,516.6666666666666,20.041666666666668,600,24C683.3333333333334,27.958333333333332,758.3333333333334,3.416666666666666,800,-2" transform="matrix(1,0,0,1,0,300)"></path><path d="M10,10C49.583333333333336,10.625,118.75,19.458333333333336,200,13C281.25,6.541666666666666,316.66666666666663,-23.291666666666668,400,-21C483.33333333333337,-18.708333333333332,516.6666666666666,20.041666666666668,600,24C683.3333333333334,27.958333333333332,758.3333333333334,3.416666666666666,800,-2" transform="matrix(1,0,0,1,0,290)"></path><path d="M10,10C49.583333333333336,10.625,118.75,19.458333333333336,200,13C281.25,6.541666666666666,316.66666666666663,-23.291666666666668,400,-21C483.33333333333337,-18.708333333333332,516.6666666666666,20.041666666666668,600,24C683.3333333333334,27.958333333333332,758.3333333333334,3.416666666666666,800,-2" transform="matrix(1,0,0,1,0,280)"></path><path d="M10,10C49.583333333333336,10.625,118.75,19.458333333333336,200,13C281.25,6.541666666666666,316.66666666666663,-23.291666666666668,400,-21C483.33333333333337,-18.708333333333332,516.6666666666666,20.041666666666668,600,24C683.3333333333334,27.958333333333332,758.3333333333334,3.416666666666666,800,-2" transform="matrix(1,0,0,1,0,270)"></path><path d="M10,10C49.583333333333336,10.625,118.75,19.458333333333336,200,13C281.25,6.541666666666666,316.66666666666663,-23.291666666666668,400,-21C483.33333333333337,-18.708333333333332,516.6666666666666,20.041666666666668,600,24C683.3333333333334,27.958333333333332,758.3333333333334,3.416666666666666,800,-2" transform="matrix(1,0,0,1,0,260)"></path><path d="M10,10C49.583333333333336,10.625,118.75,19.458333333333336,200,13C281.25,6.541666666666666,316.66666666666663,-23.291666666666668,400,-21C483.33333333333337,-18.708333333333332,516.6666666666666,20.041666666666668,600,24C683.3333333333334,27.958333333333332,758.3333333333334,3.416666666666666,800,-2" transform="matrix(1,0,0,1,0,250)"></path><path d="M10,10C49.583333333333336,10.625,118.75,19.458333333333336,200,13C281.25,6.541666666666666,316.66666666666663,-23.291666666666668,400,-21C483.33333333333337,-18.708333333333332,516.6666666666666,20.041666666666668,600,24C683.3333333333334,27.958333333333332,758.3333333333334,3.416666666666666,800,-2" transform="matrix(1,0,0,1,0,240)"></path><path d="M10,10C49.583333333333336,10.625,118.75,19.458333333333336,200,13C281.25,6.541666666666666,316.66666666666663,-23.291666666666668,400,-21C483.33333333333337,-18.708333333333332,516.6666666666666,20.041666666666668,600,24C683.3333333333334,27.958333333333332,758.3333333333334,3.416666666666666,800,-2" transform="matrix(1,0,0,1,0,230)"></path><path d="M10,10C49.583333333333336,10.625,118.75,19.458333333333336,200,13C281.25,6.541666666666666,316.66666666666663,-23.291666666666668,400,-21C483.33333333333337,-18.708333333333332,516.6666666666666,20.041666666666668,600,24C683.3333333333334,27.958333333333332,758.3333333333334,3.416666666666666,800,-2" transform="matrix(1,0,0,1,0,220)"></path><path d="M10,10C49.583333333333336,10.625,118.75,19.458333333333336,200,13C281.25,6.541666666666666,316.66666666666663,-23.291666666666668,400,-21C483.33333333333337,-18.708333333333332,516.6666666666666,20.041666666666668,600,24C683.3333333333334,27.958333333333332,758.3333333333334,3.416666666666666,800,-2" transform="matrix(1,0,0,1,0,210)"></path><path d="M10,10C49.583333333333336,10.625,118.75,19.458333333333336,200,13C281.25,6.541666666666666,316.66666666666663,-23.291666666666668,400,-21C483.33333333333337,-18.708333333333332,516.6666666666666,20.041666666666668,600,24C683.3333333333334,27.958333333333332,758.3333333333334,3.416666666666666,800,-2" transform="matrix(1,0,0,1,0,200)"></path><path d="M10,10C49.583333333333336,10.625,118.75,19.458333333333336,200,13C281.25,6.541666666666666,316.66666666666663,-23.291666666666668,400,-21C483.33333333333337,-18.708333333333332,516.6666666666666,20.041666666666668,600,24C683.3333333333334,27.958333333333332,758.3333333333334,3.416666666666666,800,-2" transform="matrix(1,0,0,1,0,190)"></path><path d="M10,10C49.583333333333336,10.625,118.75,19.458333333333336,200,13C281.25,6.541666666666666,316.66666666666663,-23.291666666666668,400,-21C483.33333333333337,-18.708333333333332,516.6666666666666,20.041666666666668,600,24C683.3333333333334,27.958333333333332,758.3333333333334,3.416666666666666,800,-2" transform="matrix(1,0,0,1,0,180)"></path><path d="M10,10C49.583333333333336,10.625,118.75,19.458333333333336,200,13C281.25,6.541666666666666,316.66666666666663,-23.291666666666668,400,-21C483.33333333333337,-18.708333333333332,516.6666666666666,20.041666666666668,600,24C683.3333333333334,27.958333333333332,758.3333333333334,3.416666666666666,800,-2" transform="matrix(1,0,0,1,0,170)"></path><path d="M10,10C49.583333333333336,10.625,118.75,19.458333333333336,200,13C281.25,6.541666666666666,316.66666666666663,-23.291666666666668,400,-21C483.33333333333337,-18.708333333333332,516.6666666666666,20.041666666666668,600,24C683.3333333333334,27.958333333333332,758.3333333333334,3.416666666666666,800,-2" transform="matrix(1,0,0,1,0,160)"></path><path d="M10,10C49.583333333333336,10.625,118.75,19.458333333333336,200,13C281.25,6.541666666666666,316.66666666666663,-23.291666666666668,400,-21C483.33333333333337,-18.708333333333332,516.6666666666666,20.041666666666668,600,24C683.3333333333334,27.958333333333332,758.3333333333334,3.416666666666666,800,-2" transform="matrix(1,0,0,1,0,150)"></path><path d="M10,10C49.583333333333336,10.625,118.75,19.458333333333336,200,13C281.25,6.541666666666666,316.66666666666663,-23.291666666666668,400,-21C483.33333333333337,-18.708333333333332,516.6666666666666,20.041666666666668,600,24C683.3333333333334,27.958333333333332,758.3333333333334,3.416666666666666,800,-2" transform="matrix(1,0,0,1,0,140)"></path><path d="M10,10C49.583333333333336,10.625,118.75,19.458333333333336,200,13C281.25,6.541666666666666,316.66666666666663,-23.291666666666668,400,-21C483.33333333333337,-18.708333333333332,516.6666666666666,20.041666666666668,600,24C683.3333333333334,27.958333333333332,758.3333333333334,3.416666666666666,800,-2" transform="matrix(1,0,0,1,0,130)"></path><path d="M10,10C49.583333333333336,10.625,118.75,19.458333333333336,200,13C281.25,6.541666666666666,316.66666666666663,-23.291666666666668,400,-21C483.33333333333337,-18.708333333333332,516.6666666666666,20.041666666666668,600,24C683.3333333333334,27.958333333333332,758.3333333333334,3.416666666666666,800,-2" transform="matrix(1,0,0,1,0,120)"></path><path d="M10,10C49.583333333333336,10.625,118.75,19.458333333333336,200,13C281.25,6.541666666666666,316.66666666666663,-23.291666666666668,400,-21C483.33333333333337,-18.708333333333332,516.6666666666666,20.041666666666668,600,24C683.3333333333334,27.958333333333332,758.3333333333334,3.416666666666666,800,-2" transform="matrix(1,0,0,1,0,110)"></path><path d="M10,10C49.583333333333336,10.625,118.75,19.458333333333336,200,13C281.25,6.541666666666666,316.66666666666663,-23.291666666666668,400,-21C483.33333333333337,-18.708333333333332,516.6666666666666,20.041666666666668,600,24C683.3333333333334,27.958333333333332,758.3333333333334,3.416666666666666,800,-2" transform="matrix(1,0,0,1,0,100)"></path><path d="M10,10C49.583333333333336,10.625,118.75,19.458333333333336,200,13C281.25,6.541666666666666,316.66666666666663,-23.291666666666668,400,-21C483.33333333333337,-18.708333333333332,516.6666666666666,20.041666666666668,600,24C683.3333333333334,27.958333333333332,758.3333333333334,3.416666666666666,800,-2" transform="matrix(1,0,0,1,0,90)"></path><path d="M10,10C49.583333333333336,10.625,118.75,19.458333333333336,200,13C281.25,6.541666666666666,316.66666666666663,-23.291666666666668,400,-21C483.33333333333337,-18.708333333333332,516.6666666666666,20.041666666666668,600,24C683.3333333333334,27.958333333333332,758.3333333333334,3.416666666666666,800,-2" transform="matrix(1,0,0,1,0,80)"></path><path d="M10,10C49.583333333333336,10.625,118.75,19.458333333333336,200,13C281.25,6.541666666666666,316.66666666666663,-23.291666666666668,400,-21C483.33333333333337,-18.708333333333332,516.6666666666666,20.041666666666668,600,24C683.3333333333334,27.958333333333332,758.3333333333334,3.416666666666666,800,-2" transform="matrix(1,0,0,1,0,70)"></path><path d="M10,10C49.583333333333336,10.625,118.75,19.458333333333336,200,13C281.25,6.541666666666666,316.66666666666663,-23.291666666666668,400,-21C483.33333333333337,-18.708333333333332,516.6666666666666,20.041666666666668,600,24C683.3333333333334,27.958333333333332,758.3333333333334,3.416666666666666,800,-2" transform="matrix(1,0,0,1,0,60)"></path><path d="M10,10C49.583333333333336,10.625,118.75,19.458333333333336,200,13C281.25,6.541666666666666,316.66666666666663,-23.291666666666668,400,-21C483.33333333333337,-18.708333333333332,516.6666666666666,20.041666666666668,600,24C683.3333333333334,27.958333333333332,758.3333333333334,3.416666666666666,800,-2" transform="matrix(1,0,0,1,0,50)"></path><path d="M10,10C49.583333333333336,10.625,118.75,19.458333333333336,200,13C281.25,6.541666666666666,316.66666666666663,-23.291666666666668,400,-21C483.33333333333337,-18.708333333333332,516.6666666666666,20.041666666666668,600,24C683.3333333333334,27.958333333333332,758.3333333333334,3.416666666666666,800,-2" transform="matrix(1,0,0,1,0,40)"></path><path d="M10,10C49.583333333333336,10.625,118.75,19.458333333333336,200,13C281.25,6.541666666666666,316.66666666666663,-23.291666666666668,400,-21C483.33333333333337,-18.708333333333332,516.6666666666666,20.041666666666668,600,24C683.3333333333334,27.958333333333332,758.3333333333334,3.416666666666666,800,-2" transform="matrix(1,0,0,1,0,30)"></path><path d="M10,10C49.583333333333336,10.625,118.75,19.458333333333336,200,13C281.25,6.541666666666666,316.66666666666663,-23.291666666666668,400,-21C483.33333333333337,-18.708333333333332,516.6666666666666,20.041666666666668,600,24C683.3333333333334,27.958333333333332,758.3333333333334,3.416666666666666,800,-2" transform="matrix(1,0,0,1,0,20)"></path><path d="M10,10C49.583333333333336,10.625,118.75,19.458333333333336,200,13C281.25,6.541666666666666,316.66666666666663,-23.291666666666668,400,-21C483.33333333333337,-18.708333333333332,516.6666666666666,20.041666666666668,600,24C683.3333333333334,27.958333333333332,758.3333333333334,3.416666666666666,800,-2" transform="matrix(1,0,0,1,0,10)"></path></g></svg>